<mxfile host="app.diagrams.net" agent="Mozilla/5.0 (Windows NT 10.0; Win64; x64) AppleWebKit/537.36 (KHTML, like Gecko) Chrome/135.0.0.0 Safari/537.36 OPR/120.0.0.0" version="28.0.9">
  <diagram name="Page-1" id="yiOKuUuSApPGLSMHls8P">
    <mxGraphModel dx="1960" dy="387" grid="1" gridSize="10" guides="1" tooltips="1" connect="1" arrows="1" fold="1" page="1" pageScale="1" pageWidth="850" pageHeight="1100" math="0" shadow="0">
      <root>
        <mxCell id="0" />
        <mxCell id="1" parent="0" />
        <mxCell id="RAs32KpJlCHKYsDaDuBX-1" value="" style="ellipse;html=1;shape=startState;fillColor=light-dark(#000000,#000000);strokeColor=light-dark(#FF0000,#FFFFFF);" vertex="1" parent="1">
          <mxGeometry x="160" y="50" width="30" height="30" as="geometry" />
        </mxCell>
        <mxCell id="RAs32KpJlCHKYsDaDuBX-2" value="" style="edgeStyle=orthogonalEdgeStyle;html=1;verticalAlign=bottom;endArrow=block;endSize=8;strokeColor=light-dark(#FF0000,#000000);rounded=0;endFill=1;entryX=0.5;entryY=0;entryDx=0;entryDy=0;" edge="1" source="RAs32KpJlCHKYsDaDuBX-1" parent="1" target="RAs32KpJlCHKYsDaDuBX-3">
          <mxGeometry relative="1" as="geometry">
            <mxPoint x="175" y="150" as="targetPoint" />
          </mxGeometry>
        </mxCell>
        <mxCell id="RAs32KpJlCHKYsDaDuBX-3" value="Capture user&#39;s new email address from keyboard input" style="rounded=0;whiteSpace=wrap;html=1;" vertex="1" parent="1">
          <mxGeometry x="115" y="120" width="120" height="60" as="geometry" />
        </mxCell>
        <mxCell id="RAs32KpJlCHKYsDaDuBX-4" value="" style="edgeStyle=orthogonalEdgeStyle;html=1;verticalAlign=bottom;endArrow=block;endSize=8;strokeColor=light-dark(#FF0000,#000000);rounded=0;endFill=1;entryX=0.5;entryY=0;entryDx=0;entryDy=0;exitX=0.5;exitY=1;exitDx=0;exitDy=0;" edge="1" parent="1" target="RAs32KpJlCHKYsDaDuBX-5" source="RAs32KpJlCHKYsDaDuBX-3">
          <mxGeometry relative="1" as="geometry">
            <mxPoint x="175" y="260" as="targetPoint" />
            <mxPoint x="175" y="190" as="sourcePoint" />
          </mxGeometry>
        </mxCell>
        <mxCell id="RAs32KpJlCHKYsDaDuBX-5" value="Compare the email with emails in the database" style="rounded=0;whiteSpace=wrap;html=1;" vertex="1" parent="1">
          <mxGeometry x="115" y="230" width="120" height="60" as="geometry" />
        </mxCell>
        <mxCell id="RAs32KpJlCHKYsDaDuBX-62" value="" style="ellipse;html=1;shape=endState;fillColor=#000000;strokeColor=light-dark(#000000,#000000);" vertex="1" parent="1">
          <mxGeometry x="315" y="630" width="30" height="30" as="geometry" />
        </mxCell>
        <mxCell id="RAs32KpJlCHKYsDaDuBX-75" value="" style="edgeStyle=orthogonalEdgeStyle;html=1;verticalAlign=bottom;endArrow=block;endSize=8;strokeColor=light-dark(#FF0000,#000000);rounded=0;endFill=1;entryX=0.5;entryY=0;entryDx=0;entryDy=0;exitX=0.5;exitY=1;exitDx=0;exitDy=0;" edge="1" parent="1" source="RAs32KpJlCHKYsDaDuBX-96" target="RAs32KpJlCHKYsDaDuBX-62">
          <mxGeometry relative="1" as="geometry">
            <mxPoint x="329.5" y="630" as="targetPoint" />
            <mxPoint x="330" y="560" as="sourcePoint" />
          </mxGeometry>
        </mxCell>
        <mxCell id="RAs32KpJlCHKYsDaDuBX-85" value="" style="edgeStyle=orthogonalEdgeStyle;html=1;verticalAlign=bottom;endArrow=block;endSize=8;strokeColor=light-dark(#FF0000,#000000);rounded=0;endFill=1;entryX=0.5;entryY=0;entryDx=0;entryDy=0;exitX=0.5;exitY=1;exitDx=0;exitDy=0;" edge="1" parent="1" target="RAs32KpJlCHKYsDaDuBX-86">
          <mxGeometry relative="1" as="geometry">
            <mxPoint x="175" y="350" as="targetPoint" />
            <mxPoint x="175" y="290" as="sourcePoint" />
          </mxGeometry>
        </mxCell>
        <mxCell id="RAs32KpJlCHKYsDaDuBX-86" value="" style="rhombus;whiteSpace=wrap;html=1;" vertex="1" parent="1">
          <mxGeometry x="135" y="360" width="80" height="80" as="geometry" />
        </mxCell>
        <mxCell id="RAs32KpJlCHKYsDaDuBX-87" value="" style="edgeStyle=segmentEdgeStyle;endArrow=classic;html=1;curved=0;rounded=0;endSize=8;startSize=8;exitX=0;exitY=0.5;exitDx=0;exitDy=0;strokeColor=light-dark(#000000,#000000);entryX=0.5;entryY=0;entryDx=0;entryDy=0;" edge="1" parent="1" source="RAs32KpJlCHKYsDaDuBX-86" target="RAs32KpJlCHKYsDaDuBX-89">
          <mxGeometry width="50" height="50" relative="1" as="geometry">
            <mxPoint x="120" y="400" as="sourcePoint" />
            <mxPoint x="60" y="460" as="targetPoint" />
          </mxGeometry>
        </mxCell>
        <mxCell id="RAs32KpJlCHKYsDaDuBX-88" value="An email account has been found" style="edgeLabel;html=1;align=center;verticalAlign=middle;resizable=0;points=[];" vertex="1" connectable="0" parent="RAs32KpJlCHKYsDaDuBX-87">
          <mxGeometry x="-0.7291" relative="1" as="geometry">
            <mxPoint x="-67" y="20" as="offset" />
          </mxGeometry>
        </mxCell>
        <mxCell id="RAs32KpJlCHKYsDaDuBX-89" value="throw a error and clear form" style="rounded=0;whiteSpace=wrap;html=1;" vertex="1" parent="1">
          <mxGeometry y="470" width="120" height="60" as="geometry" />
        </mxCell>
        <mxCell id="RAs32KpJlCHKYsDaDuBX-90" value="" style="edgeStyle=segmentEdgeStyle;endArrow=classic;html=1;curved=0;rounded=0;endSize=8;startSize=8;exitX=0;exitY=0.5;exitDx=0;exitDy=0;strokeColor=light-dark(#000000,#000000);entryX=0;entryY=0.5;entryDx=0;entryDy=0;" edge="1" parent="1" source="RAs32KpJlCHKYsDaDuBX-89" target="RAs32KpJlCHKYsDaDuBX-3">
          <mxGeometry width="50" height="50" relative="1" as="geometry">
            <mxPoint x="15" y="380" as="sourcePoint" />
            <mxPoint x="-60" y="450" as="targetPoint" />
            <Array as="points">
              <mxPoint x="-50" y="500" />
              <mxPoint x="-50" y="150" />
            </Array>
          </mxGeometry>
        </mxCell>
        <mxCell id="RAs32KpJlCHKYsDaDuBX-91" value="An email account has been found" style="edgeLabel;html=1;align=center;verticalAlign=middle;resizable=0;points=[];" vertex="1" connectable="0" parent="RAs32KpJlCHKYsDaDuBX-90">
          <mxGeometry x="-0.7291" relative="1" as="geometry">
            <mxPoint x="-67" y="20" as="offset" />
          </mxGeometry>
        </mxCell>
        <mxCell id="RAs32KpJlCHKYsDaDuBX-94" value="" style="edgeStyle=segmentEdgeStyle;endArrow=classic;html=1;curved=0;rounded=0;endSize=8;startSize=8;exitX=1;exitY=0.5;exitDx=0;exitDy=0;strokeColor=light-dark(#000000,#000000);entryX=0.5;entryY=0;entryDx=0;entryDy=0;" edge="1" parent="1" source="RAs32KpJlCHKYsDaDuBX-86" target="RAs32KpJlCHKYsDaDuBX-96">
          <mxGeometry width="50" height="50" relative="1" as="geometry">
            <mxPoint x="405" y="540" as="sourcePoint" />
            <mxPoint x="330" y="480" as="targetPoint" />
          </mxGeometry>
        </mxCell>
        <mxCell id="RAs32KpJlCHKYsDaDuBX-95" value="An email account has not been found" style="edgeLabel;html=1;align=center;verticalAlign=middle;resizable=0;points=[];" vertex="1" connectable="0" parent="RAs32KpJlCHKYsDaDuBX-94">
          <mxGeometry x="-0.7291" relative="1" as="geometry">
            <mxPoint x="71" y="20" as="offset" />
          </mxGeometry>
        </mxCell>
        <mxCell id="RAs32KpJlCHKYsDaDuBX-96" value="Change the email address in the database" style="rounded=0;whiteSpace=wrap;html=1;" vertex="1" parent="1">
          <mxGeometry x="270" y="490" width="120" height="60" as="geometry" />
        </mxCell>
      </root>
    </mxGraphModel>
  </diagram>
</mxfile>
